<?xml version="1.0" encoding="utf-8"?>
<!-- Generator: Adobe Illustrator 23.0.2, SVG Export Plug-In . SVG Version: 6.00 Build 0)  -->
<svg version="1.1" id="Layer_1" xmlns="http://www.w3.org/2000/svg" xmlns:xlink="http://www.w3.org/1999/xlink" x="0px" y="0px"
	 viewBox="0 0 68 38" style="enable-background:new 0 0 68 38;" xml:space="preserve">
<style type="text/css">
	.st0{fill:#A0A0A0;}
</style>
<g>
	<path class="st0" d="M15.5,13.1c-0.5,0-1,0-1.5,0c-0.1,0-0.1,0-0.2-0.1c-0.7-1.3-1.6-2.2-3-2.5c-1.8-0.5-3.4,0-4.7,1.3
		c-0.7,0.7-1.2,1.6-1.4,2.6c-0.3,2,0.3,3.6,1.9,4.8c1.5,1.2,3.8,1.3,5.5,0.2c0.7-0.5,1.3-1.1,1.7-1.9c0.1-0.1,0.1-0.1,0.2-0.1
		c1,0,1.9,0,2.9,0c0.1,0,0.1,0,0.1,0.1c-0.5,1.6-1.3,2.9-2.6,4c-1,0.9-2.2,1.4-3.5,1.6c-2,0.3-3.8,0.1-5.5-1c-2-1.3-3.3-3.1-3.7-5.5
		c-0.3-2.2,0.1-4.2,1.4-6c0.9-1.2,2-2.2,3.4-2.7C7.3,7.6,8.1,7.4,9,7.4c0.9,0,1.8,0,2.7,0.3c2,0.7,3.6,1.9,4.6,3.8
		c0.3,0.5,0.5,1.1,0.7,1.6c0,0.1,0,0.1-0.1,0.1C16.5,13.1,16,13.1,15.5,13.1z"/>
	<path class="st0" d="M31.1,22c-0.4,0.4-0.9,0.6-1.4,0.8c-1,0.4-2,0.5-3.1,0.4c-0.7-0.1-1.4-0.3-2-0.8c-0.6-0.6-0.9-1.3-1-2.2
		c0-0.6,0-1.2,0.1-1.8c0.3-1.1,1-1.8,2-2.2c0.7-0.3,1.4-0.4,2.1-0.5c0.8-0.1,1.5-0.2,2.3-0.4c0.5-0.1,0.9-0.6,0.8-1.3
		c-0.1-0.4-0.3-0.7-0.7-0.8c-0.3-0.1-0.6-0.2-0.9-0.2c-0.4,0-0.7,0-1.1,0c-0.6,0.1-1,0.5-1.3,1.1c0,0.1-0.1,0.2-0.1,0.4
		c0,0.1-0.1,0.2-0.2,0.2c-0.9,0-1.8,0-2.8,0c-0.1,0-0.1,0-0.1-0.1c0-0.4,0.1-0.9,0.2-1.3c0.4-1.3,1.3-2.2,2.6-2.6
		c0.5-0.2,1.1-0.3,1.7-0.3c1.1-0.1,2.2,0,3.3,0.3c0.3,0.1,0.6,0.2,1,0.4c0.9,0.4,1.3,1.1,1.5,2.1c0.1,0.4,0.1,0.7,0.1,1.1
		c0,2.9,0,5.9,0,8.8c0,0.1,0,0.2-0.2,0.2c-0.9,0-1.8,0-2.8,0c-0.1,0-0.2,0-0.1-0.2C31.1,22.8,31.1,22.4,31.1,22z M30.9,17
		c-0.2,0.1-0.4,0.3-0.6,0.3c-0.5,0.2-1.1,0.3-1.6,0.4c-0.4,0.1-0.7,0.1-1.1,0.3c-0.5,0.2-0.8,0.5-0.9,1.1c-0.1,0.2-0.1,0.5,0,0.7
		c0.1,0.7,0.5,1.1,1.1,1.2c0.4,0.1,0.8,0.1,1.2-0.1c1.3-0.4,1.7-1,1.9-2C31,18.3,30.9,17.7,30.9,17z"/>
	<path class="st0" d="M49.9,23.3c-1.9,0-3.4-0.7-4.6-2.1c-1-1.1-1.6-2.3-1.7-3.8c-0.2-2.5,0.8-4.5,2.8-5.9c0.9-0.7,1.9-1,3.1-1.1
		c0.9-0.1,1.9,0,2.7,0.4c2.2,0.9,3.6,2.5,4.1,4.9c0.3,1.8,0,3.5-1,4.9s-2.3,2.3-4,2.6C50.7,23.3,50.3,23.3,49.9,23.3z M49.9,13.5
		c-1.9-0.1-3.4,1.6-3.4,3.4c0,1.7,1.4,3.4,3.4,3.4s3.4-1.7,3.4-3.4C53.3,15,51.8,13.4,49.9,13.5z"/>
	<path class="st0" d="M17.2,29.8c0.4-0.4,0.8-0.6,1.3-0.8c0.9-0.3,1.7-0.2,2.5,0.2c0.3,0.2,0.5,0.4,0.8,0.7c0.1,0.1,0.1,0.1,0.2,0
		c0.5-0.5,1.1-0.9,1.8-1c0.8-0.1,1.5-0.1,2.3,0.2c0.9,0.4,1.4,1.2,1.6,2.2c0.1,0.3,0.1,0.6,0.1,0.9c0,1.8,0,3.7,0,5.5
		c0,0.1,0,0.2-0.1,0.1c-0.6,0-1.3,0-1.9,0c-0.1,0-0.1,0-0.1-0.1c0-1.8,0-3.5,0-5.3c0-0.3,0-0.6-0.2-0.8c-0.2-0.5-0.8-0.8-1.3-0.8
		S23.3,31,23,31.4c-0.2,0.3-0.3,0.6-0.3,0.9c0,1.8,0,3.5,0,5.3c0,0.1,0,0.2-0.2,0.2c-0.6,0-1.3,0-1.9,0c-0.1,0-0.1,0-0.1-0.1
		c0-1.8,0-3.5,0-5.3c0-0.3,0-0.6-0.2-0.9c-0.3-0.5-0.7-0.7-1.2-0.7c-0.6,0-1,0.2-1.3,0.7c-0.2,0.3-0.2,0.6-0.2,0.9
		c0,1.7,0,3.5,0,5.2c0,0.1,0,0.1-0.1,0.1c-0.7,0-1.3,0-2,0c-0.1,0-0.1,0-0.1-0.1c0-2.9,0-5.8,0-8.7c0-0.1,0-0.1,0.1-0.1
		c0.6,0,1.3,0,1.9,0c0.1,0,0.1,0,0.1,0.1C17.2,29.3,17.2,29.6,17.2,29.8z"/>
	<path class="st0" d="M39.1,12.5c0.2-0.2,0.3-0.3,0.4-0.5c0.7-0.7,1.5-1.2,2.4-1.4c0.4-0.1,0.8-0.2,1.2-0.2c0.1,0,0.1,0,0.1,0.1
		c0,1,0,1.9,0,2.9c0,0.1,0,0.1-0.1,0.1c-0.4,0-0.7-0.1-1.1,0c-0.5,0-1,0.2-1.4,0.5c-0.1,0.1-0.3,0.2-0.4,0.3c-0.6,0.5-0.9,1.2-1,2
		c0,0.4-0.1,0.8-0.1,1.2c0,1.9,0,3.7,0,5.6c0,0.1,0,0.1-0.2,0.1c-0.9,0-1.8,0-2.8,0c-0.1,0-0.1,0-0.1-0.1c0-4,0-8,0-12
		c0-0.1,0-0.1,0.1-0.1c0.9,0,1.8,0,2.6,0c0.1,0,0.2,0,0.2,0.2C39.1,11.6,39.1,12.1,39.1,12.5z"/>
	<path class="st0" d="M18.7,15.3c0-2.6,0-5.2,0-7.8c0-0.1,0-0.2,0.2-0.2c0.9,0,1.8,0,2.8,0c0.1,0,0.2,0,0.2,0.1c0,5.2,0,10.5,0,15.7
		c0,0.1,0,0.2-0.1,0.2c-0.9,0-1.9,0-2.8,0c-0.1,0-0.1,0-0.1-0.2C18.7,20.5,18.7,17.9,18.7,15.3z"/>
	<path class="st0" d="M64.1,37.1c-0.2,0.2-0.4,0.4-0.7,0.5C63,37.9,62.6,38,62.1,38s-1,0-1.5-0.2c-1-0.3-1.5-1-1.7-2
		c-0.1-0.4-0.1-0.9,0.1-1.3c0.2-0.7,0.6-1.2,1.3-1.5c0.6-0.3,1.1-0.3,1.8-0.3c0.6,0,1.3,0,1.9,0c0.1,0,0.1,0,0.1-0.1
		c0-0.2,0-0.5,0-0.7c-0.1-0.5-0.4-0.9-0.9-1s-1-0.1-1.4,0s-0.7,0.3-0.9,0.6c-0.1,0.1-0.1,0.1-0.2,0c-0.4-0.4-0.8-0.8-1.3-1.2
		c-0.1-0.1-0.1-0.1,0-0.2c0.6-0.6,1.3-1,2.2-1.1c0.8-0.1,1.6-0.1,2.4,0.1c0.8,0.2,1.5,0.6,1.9,1.3c0.3,0.5,0.4,1,0.4,1.6
		c0,1.9,0,3.8,0,5.8c0,0.1,0,0.2-0.2,0.2c-0.6,0-1.2,0-1.9,0c-0.1,0-0.1,0-0.1-0.1C64.1,37.6,64.1,37.4,64.1,37.1z M64,34.6
		c0-0.1,0-0.2,0-0.3s0-0.1-0.1-0.1c-0.5,0-1.1,0-1.6,0c-0.2,0-0.3,0-0.5,0.1c-0.5,0.1-0.7,0.4-0.8,0.9c0,0.5,0.2,0.8,0.7,1
		s1,0.1,1.5,0s0.8-0.5,0.8-1C64,34.9,64,34.7,64,34.6z"/>
	<path class="st0" d="M34.8,37.1c-0.9,0.9-2,1.1-3.2,0.8c-1.1-0.3-1.7-1-1.9-2.1c-0.1-0.3-0.1-0.7-0.1-1c0-1.9,0-3.7,0-5.6
		c0-0.1,0-0.2,0.2-0.2c0.6,0,1.3,0,1.9,0c0.1,0,0.1,0,0.1,0.1c0,1.8,0,3.5,0,5.3c0,0.5,0.1,0.9,0.4,1.2c0.3,0.3,0.7,0.4,1.1,0.4
		c0.5,0,0.9-0.2,1.2-0.6c0.2-0.2,0.2-0.5,0.3-0.8c0-0.3,0-0.5,0-0.8c0-1.5,0-3.1,0-4.6c0-0.1,0-0.1,0.1-0.1c0.6,0,1.3,0,1.9,0
		c0.1,0,0.1,0,0.1,0.1c0,2.9,0,5.8,0,8.6c0,0.1,0,0.1-0.1,0.1c-0.6,0-1.3,0-1.9,0c-0.1,0-0.1,0-0.1-0.1
		C34.8,37.5,34.8,37.3,34.8,37.1z"/>
	<path class="st0" d="M41.9,38c-1,0-1.8-0.1-2.5-0.4c-0.4-0.2-0.8-0.5-1.1-0.8c-0.1-0.1-0.1-0.1,0-0.1c0.4-0.4,0.9-0.9,1.3-1.3
		c0,0,0.1-0.1,0.1,0c0.5,0.4,1,0.7,1.6,0.7c0.5,0.1,1.1,0.1,1.6-0.1c0.2-0.1,0.4-0.2,0.6-0.4c0.3-0.5,0.1-1.1-0.5-1.2
		c-0.4-0.1-0.8-0.1-1.2-0.1c-0.5-0.1-1-0.1-1.5-0.2c-1.1-0.3-1.7-1.1-1.7-2.2c0-1.3,0.7-2.3,2-2.7c0.6-0.2,1.2-0.2,1.8-0.2
		c0.7,0,1.4,0.1,2.1,0.4c0.3,0.1,0.6,0.3,0.9,0.6c0.1,0,0.1,0.1,0,0.1c-0.4,0.4-0.8,0.8-1.2,1.2c0,0.1-0.1,0.1-0.1,0
		c-0.4-0.3-0.9-0.5-1.4-0.5c-0.4,0-0.7-0.1-1.1,0c-0.2,0-0.3,0.1-0.4,0.2c-0.3,0.2-0.4,0.5-0.3,0.8c0.1,0.3,0.4,0.5,0.7,0.5
		c0.5,0.1,1,0.1,1.6,0.2c0.5,0,0.9,0.1,1.4,0.3c0.8,0.4,1.2,1,1.3,1.8c0.1,0.5,0,1-0.1,1.5c-0.3,0.8-0.9,1.3-1.7,1.6
		C43.2,37.9,42.5,38,41.9,38z"/>
	<path class="st0" d="M51.2,33.5c0-0.9,0.1-1.7,0.5-2.5c0.5-1.1,1.4-1.8,2.7-2c0.8-0.1,1.6-0.1,2.3,0.1c0.6,0.2,1,0.5,1.4,0.9
		c0.1,0.1,0,0.1,0,0.1c-0.5,0.5-0.9,0.9-1.4,1.4c-0.1,0.1-0.1,0-0.1,0c-0.3-0.3-0.5-0.5-0.9-0.6c-1-0.2-1.8,0.3-2.1,1.3
		c-0.2,0.8-0.2,1.6,0,2.4c0.2,0.7,0.6,1.1,1.2,1.3c0.6,0.1,1.2,0,1.7-0.5c0.2-0.2,0.2-0.2,0.3,0c0.4,0.4,0.8,0.8,1.2,1.2
		c0.1,0.1,0.1,0.1,0,0.2c-0.8,0.8-1.8,1.1-2.9,1.1c-0.8,0-1.5-0.2-2.1-0.6c-0.8-0.5-1.3-1.3-1.6-2.2C51.3,34.6,51.2,34,51.2,33.5z"
		/>
	<path class="st0" d="M56.9,10.9C56.8,10.9,56.8,10.9,56.9,10.9C56.2,10.2,55.6,9.6,55,9c-0.1-0.1,0-0.1,0-0.2
		c1.1-1.1,2.2-2.2,3.3-3.3c1.3-1.3,2.6-2.6,3.9-3.9c0.1-0.1,0.1-0.1,0.2,0c0.6,0.6,1.2,1.2,1.7,1.8c0.1,0.1,0.1,0.1,0,0.2
		C61.8,6,59.4,8.4,56.9,10.9C56.9,10.8,56.9,10.9,56.9,10.9z"/>
	<path class="st0" d="M62.3,16.7c-1.3,0-2.6,0-3.9,0c-0.1,0-0.2,0-0.2-0.2c0-0.8,0-1.6,0-2.5c0-0.1,0-0.1,0.1-0.1c2.6,0,5.2,0,7.8,0
		c0.1,0,0.1,0,0.1,0.1c0,0.8,0,1.6,0,2.5c0,0.1,0,0.1-0.1,0.1C64.9,16.7,63.6,16.7,62.3,16.7z"/>
	<path class="st0" d="M48.9,4c0-1.3,0-2.5,0-3.8C48.9,0,49,0,49.1,0c0.8,0,1.6,0,2.5,0c0.1,0,0.1,0,0.1,0.1c0,2.6,0,5.1,0,7.7
		c0,0.1,0,0.1-0.1,0.1c-0.8,0-1.6,0-2.5,0c-0.1,0-0.1,0-0.1-0.1C48.9,6.5,48.9,5.2,48.9,4z"/>
	<path class="st0" d="M47.3,33.4c0-1.4,0-2.9,0-4.3c0-0.1,0-0.1,0.1-0.1c0.7,0,1.3,0,2,0c0.1,0,0.1,0,0.1,0.1c0,2.9,0,5.8,0,8.6
		c0,0.1,0,0.1-0.1,0.1c-0.7,0-1.3,0-2,0c-0.1,0-0.1,0-0.1-0.1C47.3,36.3,47.3,34.9,47.3,33.4z"/>
	<path class="st0" d="M48.4,27.9c-0.8,0-1.4-0.6-1.4-1.4s0.6-1.4,1.4-1.4c0.8,0,1.4,0.6,1.4,1.4C49.8,27.3,49.2,27.9,48.4,27.9z"/>
	<path class="st0" d="M32.3,27.6c0.1-0.3,0.2-0.6,0.4-1c0.2-0.6,0.5-1.2,0.7-1.8c0-0.1,0-0.1,0.1-0.1c0.7,0,1.5,0,2.2,0l0,0
		c0,0,0,0.1-0.1,0.1c-0.6,0.9-1.2,1.8-1.8,2.7c0,0.1-0.1,0.1-0.2,0.1C33.2,27.6,32.7,27.6,32.3,27.6z"/>
</g>
</svg>
