<?xml version="1.0" encoding="utf-8"?>
<!-- Generator: Adobe Illustrator 23.0.2, SVG Export Plug-In . SVG Version: 6.00 Build 0)  -->
<svg version="1.1" id="Capa_1" xmlns="http://www.w3.org/2000/svg" xmlns:xlink="http://www.w3.org/1999/xlink" x="0px" y="0px"
	 viewBox="0 0 144 144" style="enable-background:new 0 0 144 144;" xml:space="preserve">
<style type="text/css">
	.st0{fill:none;}
	.st1{fill:#A0A0A0;}
	.st2{clip-path:url(#SVGID_2_);fill:#FFFFFF;}
	.st3{clip-path:url(#SVGID_4_);}
</style>
<title></title>
<g>
	<title>background</title>
	<rect id="canvas_background" x="-1" y="-1" class="st0" width="146" height="146"/>
</g>
<g>
	<title>Layer 1</title>
	<g id="svg_1">
		<path id="svg_2" class="st1" d="M72,142.4L72,142.4c38.8,0,70.4-31.5,70.4-70.4l0,0c0-38.8-31.5-70.4-70.4-70.4l0,0
			C33.2,1.6,1.6,33.2,1.6,72l0,0C1.6,110.8,33.2,142.4,72,142.4z"/>
		<g id="svg_3">
			<g>
				<defs>
					<rect id="SVGID_1_" x="34.4" y="36.7" width="75.2" height="70.6"/>
				</defs>
				<clipPath id="SVGID_2_">
					<use xlink:href="#SVGID_1_"  style="overflow:visible;"/>
				</clipPath>
				<path id="svg_5" class="st2" d="M72.4,106.5c-0.2,0-0.4,0-0.5,0c-0.1,0-0.3,0-0.4,0c-4.4,0-7.1-2-9.9-3.9
					c-1.9-1.3-3.6-2.6-5.7-2.9c-1-0.2-2-0.3-3-0.3c-1.8,0-3.1,0.3-4.1,0.5c-0.6,0.1-1.2,0.2-1.6,0.2c-0.4,0-0.9-0.1-1.1-0.8
					c-0.2-0.6-0.3-1.2-0.4-1.7c-0.3-1.4-0.5-2.3-1.1-2.4c-6.9-1.1-8.9-2.5-9.3-3.6c-0.1-0.2-0.1-0.3-0.1-0.5c0-0.4,0.3-0.8,0.6-0.8
					c10.6-1.8,15.4-12.6,15.6-13.1c0,0,0,0,0-0.1c0.6-1.3,0.8-2.5,0.4-3.4c-0.7-1.7-3.1-2.5-4.7-3c-0.4-0.1-0.8-0.2-1-0.4
					c-3.1-1.2-3.4-2.5-3.3-3.2c0.2-1.1,1.7-1.9,2.9-1.9c0.3,0,0.6,0.1,0.9,0.2c1.4,0.6,2.7,1,3.8,1c1.5,0,2.2-0.6,2.3-0.7
					c-0.1-0.7-0.1-1.5-0.1-2.2c-0.3-5-0.7-11.3,0.9-14.8c4.8-10.7,14.9-11.5,17.8-11.5c0.1,0,1.3,0,1.3,0h0.2
					c3,0,13.1,0.8,17.9,11.5c1.6,3.6,1.2,9.8,0.9,14.8l0,0.2c-0.1,0.7-0.1,1.4-0.1,2c0.1,0.1,0.7,0.6,2.1,0.7c1.1-0.1,2.3-0.4,3.6-1
					c0.4-0.2,0.8-0.2,1.1-0.2c0.5,0,0.9,0.1,1.3,0.3h0c1.1,0.4,1.8,1.1,1.8,1.9c0,0.7-0.5,1.8-3.3,2.9c-0.3,0.1-0.6,0.2-1,0.4
					c-1.6,0.5-3.9,1.3-4.7,3c-0.4,0.9-0.3,2.1,0.4,3.4c0,0,0,0,0,0.1c0.2,0.5,5,11.3,15.6,13.1c0.4,0.1,0.7,0.4,0.6,0.8
					c0,0.2-0.1,0.3-0.1,0.5c-0.4,1-2.4,2.5-9.3,3.5c-0.5,0.1-0.8,0.8-1.1,2.4c-0.1,0.5-0.3,1.1-0.4,1.7c-0.2,0.5-0.5,0.7-1,0.7h-0.1
					c-0.4,0-0.9-0.1-1.6-0.2c-1.2-0.2-2.5-0.5-4.1-0.5c-1,0-2,0.1-3,0.3c-2.1,0.4-3.8,1.6-5.7,2.9C79.6,104.5,76.8,106.5,72.4,106.5
					"/>
			</g>
			<g>
				<defs>
					<rect id="SVGID_3_" x="34.4" y="36.7" width="75.2" height="70.6"/>
				</defs>
				<clipPath id="SVGID_4_">
					<use xlink:href="#SVGID_3_"  style="overflow:visible;"/>
				</clipPath>
				<path id="svg_6" class="st3" d="M72.7,36.7L72.7,36.7h-0.2h-1.3c-3.1,0-13.6,0.9-18.5,12c-1.7,3.7-1.3,10.1-1,15.2
					c0.1,0.6,0.1,1.2,0.1,1.8c-0.3,0.2-0.7,0.3-1.4,0.3c-1,0-2.1-0.3-3.5-0.9c-0.4-0.2-0.8-0.3-1.2-0.3c-1.5,0-3.4,1-3.6,2.5
					c-0.2,1.1,0.3,2.7,3.8,4c0.3,0.1,0.7,0.3,1.1,0.4c1.4,0.5,3.6,1.2,4.2,2.5c0.3,0.7,0.2,1.7-0.4,2.8c0,0,0,0.1,0,0.1
					c-0.2,0.5-4.8,10.9-15,12.6c-0.8,0.1-1.4,0.8-1.3,1.6c0,0.2,0.1,0.5,0.2,0.7c0.8,1.8,4,3.1,9.9,4c0.2,0.3,0.4,1.2,0.5,1.8
					c0.1,0.5,0.3,1.2,0.4,1.8c0.2,0.6,0.6,1.3,1.8,1.3c0.5,0,1.1-0.1,1.7-0.3c1-0.2,2.3-0.5,4-0.5c0.9,0,1.9,0.1,2.9,0.3
					c1.9,0.3,3.5,1.4,5.4,2.8c2.7,1.9,5.7,4,10.3,4c0.1,0,0.3,0,0.4,0c0.2,0,0.4,0,0.5,0c4.6,0,7.6-2.1,10.3-4
					c1.9-1.3,3.5-2.5,5.4-2.8c1-0.2,1.9-0.3,2.9-0.3c1.6,0,2.9,0.2,4,0.4c0.7,0.2,1.3,0.2,1.7,0.2h0.1h0.1c0.9,0,1.5-0.5,1.7-1.3
					c0.2-0.6,0.3-1.2,0.4-1.7c0.1-0.6,0.3-1.5,0.5-1.8c5.9-0.9,9.1-2.2,9.9-4c0.1-0.2,0.2-0.5,0.2-0.7c0.1-0.8-0.5-1.5-1.3-1.6
					C98,88,93.4,77.5,93.2,77.1c0,0,0-0.1,0-0.1c-0.5-1.1-0.7-2-0.4-2.8c0.6-1.4,2.8-2.1,4.2-2.5c0.4-0.1,0.8-0.3,1.1-0.4
					c2.5-1,3.8-2.2,3.8-3.7c0-1.1-0.9-2.1-2.3-2.6c-0.5-0.2-1-0.3-1.6-0.3c-0.4,0-0.9,0.1-1.4,0.3c-1.2,0.6-2.3,0.9-3.2,0.9
					c-0.6,0-1-0.2-1.3-0.3c0-0.5,0.1-1.1,0.1-1.6l0-0.2c0.3-5.1,0.7-11.5-1-15.2C86.3,37.5,75.8,36.7,72.7,36.7 M72.7,38.2
					c2.8,0,12.6,0.8,17.2,11c1.5,3.4,1.1,9.5,0.8,14.5c-0.1,0.8-0.1,1.5-0.1,2.3l0,0.3l0.2,0.2c0.1,0.1,0.9,0.9,2.6,1h0h0
					c1.2-0.1,2.5-0.4,3.9-1.1c0.2-0.1,0.5-0.2,0.8-0.2c0.3,0,0.7,0.1,1,0.2l0.1,0c0.8,0.3,1.3,0.8,1.3,1.2c0,0.3-0.2,1.2-2.8,2.2
					c-0.3,0.1-0.6,0.2-1,0.3c-1.7,0.5-4.3,1.4-5.2,3.4c-0.5,1.2-0.4,2.5,0.4,4c0.3,0.7,5.2,11.7,16.2,13.5c0,0.1,0,0.1-0.1,0.2
					c-0.2,0.4-1.4,2-8.7,3.1c-1.2,0.2-1.4,1.5-1.8,3c-0.1,0.5-0.2,1.1-0.4,1.6c-0.1,0.2-0.1,0.2-0.3,0.2h-0.1
					c-0.3,0-0.8-0.1-1.4-0.2c-1.1-0.2-2.5-0.5-4.3-0.5c-1,0-2.1,0.1-3.1,0.3c-2.3,0.4-4.1,1.7-6,3c-2.6,1.8-5.3,3.7-9.4,3.7
					c-0.2,0-0.4,0-0.5,0h-0.1h-0.1h-0.3c-4.1,0-6.8-1.9-9.4-3.7c-1.9-1.4-3.8-2.7-6-3c-1.1-0.2-2.1-0.3-3.1-0.3
					c-1.8,0-3.3,0.3-4.3,0.5c-0.6,0.1-1.1,0.2-1.4,0.2c-0.3,0-0.3,0-0.3-0.2c-0.2-0.5-0.3-1.1-0.4-1.7c-0.3-1.5-0.6-2.8-1.8-3
					c-7.4-1.1-8.5-2.7-8.7-3.1c0-0.1-0.1-0.1-0.1-0.2c11-1.8,15.9-12.8,16.2-13.5c0.8-1.5,0.9-2.9,0.4-4c-0.9-2.1-3.5-2.9-5.2-3.4
					c-0.4-0.1-0.7-0.2-1-0.3c-2.2-0.9-2.9-1.8-2.8-2.3c0.1-0.6,1.2-1.3,2.1-1.3c0.2,0,0.4,0,0.5,0.1c1.5,0.7,2.9,1.1,4.1,1.1
					c1.9,0,2.8-0.9,2.9-1l0.2-0.2l0-0.3c-0.1-0.7-0.1-1.5-0.1-2.3c-0.3-4.9-0.7-11.1,0.8-14.5c4.6-10.3,14.3-11,17.2-11h1.3
					C72.6,38.2,72.6,38.2,72.7,38.2"/>
			</g>
		</g>
	</g>
</g>
</svg>
