<?xml version="1.0" encoding="utf-8"?>
<!-- Generator: Adobe Illustrator 23.0.2, SVG Export Plug-In . SVG Version: 6.00 Build 0)  -->
<svg version="1.1" id="Capa_1" xmlns="http://www.w3.org/2000/svg" xmlns:xlink="http://www.w3.org/1999/xlink" x="0px" y="0px"
	 viewBox="0 0 144 144" style="enable-background:new 0 0 144 144;" xml:space="preserve">
<style type="text/css">
	.st0{fill:none;}
	.st1{fill:#A0A0A0;}
	.st2{clip-path:url(#SVGID_2_);}
	.st3{clip-path:url(#SVGID_4_);}
	.st4{clip-path:url(#SVGID_6_);}
	.st5{filter:url(#Adobe_OpacityMaskFilter);}
	.st6{mask:url(#mask3993_1_);}
	.st7{opacity:0.3;clip-path:url(#SVGID_10_);}
	.st8{clip-path:url(#SVGID_12_);}
	.st9{fill:#727272;}
	.st10{opacity:0.3;clip-path:url(#SVGID_14_);}
	.st11{clip-path:url(#SVGID_16_);}
	.st12{fill:url(#path4103_1_);}
	.st13{fill:#3D3D3D;}
	.st14{fill:#515252;}
	.st15{opacity:0.52;clip-path:url(#SVGID_18_);}
	.st16{fill:#FFFFFF;}
</style>
<g transform="matrix(1.9599997997283936,0,0,1.9599997997283936,210.00001525878906,-0.000007713048262303346) ">
	<title>background</title>
	<path id="canvas_background" class="st0" d="M-1-1h502v502H-1V-1z"/>
</g>
<title>Layer 1</title>
<g>
	<title>Layer 1</title>
	<path id="svg_2" class="st1" d="M141.3,72c0,38.3-31,69.3-69.3,69.3S2.7,110.3,2.7,72c0-38.3,31-69.3,69.3-69.3
		C110.3,2.7,141.3,33.7,141.3,72C141.3,72,141.3,72,141.3,72z"/>
	<g id="svg_1" transform="matrix(0.4027784409160614,0,0,0.4027784409160614,324.997502335152,-22.757149971008666) ">
		<g id="g3969" transform="matrix(1.78553,0,0,-1.78553,-523.96,682.107) ">
			<g>
				<defs>
					<polygon id="SVGID_1_" points="-166.7,1028.5 1052.4,1028.5 1052.4,166.5 -166.7,166.5 -166.7,1028.5 					"/>
				</defs>
				<clipPath id="SVGID_2_">
					<use xlink:href="#SVGID_1_"  style="overflow:visible;"/>
				</clipPath>
				<g id="g3971" class="st2">
					<g id="g3977">
						<g id="g3979">
						</g>
						<g id="g4009">
							<g>
								<defs>
									<rect id="SVGID_3_" x="-92.1" y="228.9" width="67.6" height="16.7"/>
								</defs>
								<clipPath id="SVGID_4_">
									<use xlink:href="#SVGID_3_"  style="overflow:visible;"/>
								</clipPath>
								<g id="g4011" class="st3">
									<g id="g4013">
										<g id="g4015">
											<g>
												<defs>
													<rect id="SVGID_5_" x="-92.1" y="228.9" width="67.6" height="16.7"/>
												</defs>
												<clipPath id="SVGID_6_">
													<use xlink:href="#SVGID_5_"  style="overflow:visible;"/>
												</clipPath>
												<g id="g4017" class="st4">
													<g id="g4019">
														<g id="g4021">
														</g>
														<defs>
															<filter id="Adobe_OpacityMaskFilter" filterUnits="userSpaceOnUse" x="-105.3" y="-240.1" width="94" height="5.7">
																<feColorMatrix  type="matrix" values="1 0 0 0 0  0 1 0 0 0  0 0 1 0 0  0 0 0 1 0"/>
															</filter>
														</defs>
														<mask maskUnits="userSpaceOnUse" x="-105.3" y="-240.1" width="94" height="5.7" id="mask3993_1_">
															<g id="g3995_1_" class="st5">
																<g>
																	<defs>
																		<rect id="SVGID_7_" x="-54.7" y="240.4" width="94" height="23.2"/>
																	</defs>
																	<clipPath id="SVGID_8_">
																		<use xlink:href="#SVGID_7_"  style="overflow:visible;"/>
																	</clipPath>
																	<g id="g3997_1_">
																		<g id="g3999_1_">
																			<g id="g4001_1_" transform="matrix(93.979775,0,0,23.157696,61.405273,59.178242) ">
																				
																					<g transform="matrix(3.326525e-03 0 0 3.326525e-03 -1.4309 8.1547)" style="clip-path:url(#SVGID_8_);enable-background:new    ;">
																					
																						<image style="overflow:visible;" width="418" height="103" id="image4003_1_" xlink:href="D74D4734.png"  transform="matrix(3.326525e-03 0 0 3.326525e-03 -1.4309 8.1547)">
																					</image>
																				</g>
																			</g>
																		</g>
																	</g>
																</g>
															</g>
														</mask>
														<g id="g4023" class="st6">
															<g id="g4025" transform="matrix(93.9798,0,0,23.1577,61.4053,59.1782) ">
																<defs>
																	<filter id="Adobe_OpacityMaskFilter_1_" filterUnits="userSpaceOnUse" x="-1.8" y="-7.8" width="1" height="0.2">
																		<feColorMatrix  type="matrix" values="1 0 0 0 0  0 1 0 0 0  0 0 1 0 0  0 0 0 1 0"/>
																	</filter>
																</defs>
																<mask maskUnits="userSpaceOnUse" x="-1.8" y="-7.8" width="1" height="0.2" id="mask4005_1_">
																	
																		<image style="overflow:visible;filter:url(#Adobe_OpacityMaskFilter_1_);enable-background:new    ;" width="418" height="103" id="image4007_1_" xlink:href="D74D4734.jpg"  transform="matrix(3.539617e-05 0 0 -1.436466e-04 -2.3395 12.5519)">
																	</image>
																</mask>
																
																	<g transform="matrix(2.392347e-03 0 0 -2.392347e-03 -1.7742 7.8112)" style="mask:url(#mask4005_1_);enable-background:new    ;">
																	
																		<image style="overflow:visible;" width="418" height="103" id="image4027" xlink:href="D74D4733.png"  transform="matrix(2.392347e-03 0 0 -2.392347e-03 -1.7742 7.8112)">
																	</image>
																</g>
															</g>
														</g>
													</g>
												</g>
											</g>
										</g>
									</g>
								</g>
							</g>
						</g>
					</g>
					<g id="g4029">
						<g id="g4031">
						</g>
						<g id="g4041">
							<g>
								<defs>
									<rect id="SVGID_9_" x="-48.4" y="235.9" width="13.9" height="2.8"/>
								</defs>
								<clipPath id="SVGID_10_">
									<use xlink:href="#SVGID_9_"  style="overflow:visible;"/>
								</clipPath>
								<g id="g4043" class="st7">
									<g id="g4045">
										<g id="g4047">
											<g>
												<defs>
													<rect id="SVGID_11_" x="-48.4" y="235.9" width="13.9" height="2.8"/>
												</defs>
												<clipPath id="SVGID_12_">
													<use xlink:href="#SVGID_11_"  style="overflow:visible;"/>
												</clipPath>
												<g id="g4049" class="st8">
													<g id="g4051">
														<path id="path4053" class="st9" d="M-31.8,237.3c0-1.1-4.3-2-9.6-2c-5.3,0-9.6,0.9-9.6,2c0,1.1,4.3,1.9,9.6,1.9
															C-36.1,239.3-31.8,238.4-31.8,237.3"/>
													</g>
												</g>
											</g>
										</g>
									</g>
								</g>
							</g>
						</g>
					</g>
					<g id="g4055">
						<g id="g4057">
						</g>
						<g id="g4067">
							<g>
								<defs>
									<rect id="SVGID_13_" x="-80.5" y="235.9" width="13.9" height="2.8"/>
								</defs>
								<clipPath id="SVGID_14_">
									<use xlink:href="#SVGID_13_"  style="overflow:visible;"/>
								</clipPath>
								<g id="g4069" class="st10">
									<g id="g4071">
										<g id="g4073">
											<g>
												<defs>
													<rect id="SVGID_15_" x="-80.5" y="235.9" width="13.9" height="2.8"/>
												</defs>
												<clipPath id="SVGID_16_">
													<use xlink:href="#SVGID_15_"  style="overflow:visible;"/>
												</clipPath>
												<g id="g4075" class="st11">
													<g id="g4077">
														<path id="path4079" class="st9" d="M-64,237.3c0-1.1-4.3-2-9.6-2c-5.3,0-9.6,0.9-9.6,2c0,1.1,4.3,1.9,9.6,1.9
															C-68.3,239.3-64,238.4-64,237.3"/>
													</g>
												</g>
											</g>
										</g>
									</g>
								</g>
							</g>
						</g>
					</g>
				</g>
			</g>
		</g>
		<g id="g4081" transform="matrix(1.78553,0,0,-1.78553,-523.96,682.107) ">
			<g id="g4083">
				<g id="g4089">
					<g id="g4091">
						
							<radialGradient id="path4103_1_" cx="-460.1826" cy="-340.3181" r="1" gradientTransform="matrix(-0.2561 -43.4177 -59.1606 0.3489 -20209.2598 -19520.3613)" gradientUnits="userSpaceOnUse">
							<stop  offset="0" style="stop-color:#F9FAFB"/>
							<stop  offset="0.7359" style="stop-color:#CFDADF"/>
							<stop  offset="0.7359" style="stop-color:#CFDADF"/>
							<stop  offset="1" style="stop-color:#F1F3F5"/>
						</radialGradient>
						<path id="path4103" class="st12" d="M-56.5,311.4c-6.7-0.9-13.3-3.7-18.6-7.8l0,0c-5.9-4.6-9.6-10.5-10.9-17.1l0,0
							c-0.4-2-0.6-4.1-0.7-6.4l0,0c-0.7-8.9-1.6-14.4-8.9-14.4l0,0c-0.9,0-1.6-0.5-2-1.2l0,0c-0.4-0.8-0.3-1.7,0.2-2.4l0,0
							c9.9-13.1,26.8-14.6,38.7-14.6l0,0c0.3,0,0.6,0,0.9,0l0,0c0.2,0,0.4,0,0.7,0l0,0c0.3,0,0.7,0,1.1,0l0,0c0.4,0,0.8,0,1.2,0l0,0
							c5.6,0,11.4,0.3,16.7,2.2l0,0c9.3,3.5,17.1,11.3,19.9,19.8l0,0c3.2,9.7,1.7,19.5-4.2,27.6l0,0c-6.5,9-17.8,14.6-29.3,14.6l0,0
							C-53.3,311.8-54.9,311.7-56.5,311.4"/>
					</g>
				</g>
			</g>
		</g>
		<g id="g4113" transform="matrix(1.78553,0,0,-1.78553,-523.96,682.107) ">
			<path id="path4115" class="st13" d="M-51.7,314c-1.7,0-3.4-0.1-5.1-0.3c-7.1-1-14.1-3.9-19.6-8.3c-6.3-5-10.3-11.3-11.7-18.4
				c-0.4-2.1-0.6-4.4-0.8-6.7c-0.3-3.5-0.5-7.2-1.7-9.6c-0.8-1.6-1.9-2.7-5-2.7c-1.7,0-3.3-1-4-2.5c-0.8-1.5-0.6-3.4,0.4-4.7
				c10.5-13.9,28.2-15.5,40.5-15.5c0.3,0,0.6,0,0.9,0c0.2,0,0.4,0,0.7,0c0.3,0,0.7,0,1.1,0c0.4,0,0.8,0,1.2,0
				c5.8,0,11.9,0.3,17.4,2.4c4.6,1.7,9.1,4.5,12.8,8.1c4,3.9,7,8.4,8.5,13.2c1.8,5.3,2.2,10.7,1.3,16c-0.8,4.9-2.8,9.5-5.8,13.7
				c-3.4,4.7-8.1,8.6-13.5,11.4C-39.5,312.6-45.6,314-51.7,314 M-51.7,309.5c20.3,0,38.3-18.1,31.3-39.3
				c-2.8-8.5-10.6-15.5-18.6-18.4c-5.2-1.9-11.2-2.1-15.9-2.1c-0.8,0-1.6,0-2.3,0c-0.2,0-0.5,0-0.7,0c-0.3,0-0.6,0-0.9,0
				c-11.6,0-27.7,1.4-36.9,13.7c12.7,0,10.2,14.2,11.9,22.6c2.5,12.8,15.2,21.5,27.5,23.2C-54.7,309.4-53.2,309.5-51.7,309.5"/>
		</g>
		<g id="g4117" transform="matrix(1.78553,0,0,-1.78553,-523.96,682.107) ">
			<path id="path4119" class="st13" d="M-64.6,246.5c0.4-5-3.3-9.3-8.2-9.8c-5-0.4-9.3,3.3-9.8,8.2c-0.4,5,3.3,9.3,8.2,9.8
				C-69.4,255.1-65,251.4-64.6,246.5"/>
		</g>
		<g id="g4121" transform="matrix(1.78553,0,0,-1.78553,-523.96,682.107) ">
			<path id="path4123" class="st14" d="M-70.9,245.8c0-1.6-1.1-2.9-2.5-2.9c-1.4,0-2.5,1.3-2.5,2.9c0,1.6,1.1,2.9,2.5,2.9
				C-72.1,248.7-70.9,247.4-70.9,245.8"/>
		</g>
		<g id="g4125" transform="matrix(1.78553,0,0,-1.78553,-523.96,682.107) ">
			<path id="path4127" class="st13" d="M-33.6,246.5c0.4-5-3.3-9.3-8.2-9.8c-5-0.4-9.3,3.3-9.8,8.2c-0.4,5,3.3,9.3,8.2,9.8
				C-38.4,255.1-34.1,251.4-33.6,246.5"/>
		</g>
		<g id="g4129" transform="matrix(1.78553,0,0,-1.78553,-523.96,682.107) ">
			<path id="path4131" class="st14" d="M-40,245.8c0-1.6-1.1-2.9-2.5-2.9c-1.4,0-2.5,1.3-2.5,2.9c0,1.6,1.1,2.9,2.5,2.9
				C-41.1,248.7-40,247.4-40,245.8"/>
		</g>
		<g id="g4133" transform="matrix(1.78553,0,0,-1.78553,-523.96,682.107) ">
			<path id="path4135" class="st13" d="M-59.3,287.1c0-2.4-1.9-4.3-4.3-4.3c-2.4,0-4.3,1.9-4.3,4.3c0,2.4,1.9,4.3,4.3,4.3
				C-61.2,291.4-59.3,289.5-59.3,287.1"/>
		</g>
		<g id="g4137" transform="matrix(1.78553,0,0,-1.78553,-523.96,682.107) ">
			<path id="path4139" class="st13" d="M-38.6,287.8c0-2.4-1.9-4.3-4.3-4.3c-2.4,0-4.3,1.9-4.3,4.3c0,2.4,1.9,4.3,4.3,4.3
				C-40.6,292.1-38.6,290.2-38.6,287.8"/>
		</g>
		<g id="g4141" transform="matrix(1.78553,0,0,-1.78553,-523.96,682.107) ">
			<path id="path4143" class="st13" d="M-53.2,264c-3.7,0-7.3,1.2-10.1,3.4c-2.9,2.2-4.8,5.3-5.1,8.5c-0.1,1.2,0.7,2.4,2,2.5
				c1.2,0.1,2.3-0.7,2.5-2c0.5-4.8,6.3-8,11.1-7.9c6.1,0.2,10.2,3.8,11,7.4c0.3,1.2,1.5,2,2.7,1.7c1.2-0.3,2-1.5,1.7-2.7
				c-0.7-2.9-2.5-5.6-5.2-7.5c-2.8-2.1-6.3-3.2-10-3.3C-52.9,264-53.1,264-53.2,264"/>
		</g>
	</g>
	<g id="svg_3">
		<g id="g4145" transform="matrix(0.3911881675522369,0,0,-0.3911881675522369,77.27895600647591,172.89825132754407) ">
			<g id="g4147">
			</g>
			<g id="g4177">
				<g>
					<defs>
						<rect id="SVGID_17_" x="-72.3" y="161.7" width="82.5" height="21.4"/>
					</defs>
					<clipPath id="SVGID_18_">
						<use xlink:href="#SVGID_17_"  style="overflow:visible;"/>
					</clipPath>
					<g id="g4179" class="st15">
						<g id="g4181">
							<g id="g4183">
								<g>
									<defs>
										<rect id="SVGID_19_" x="-72.3" y="161.7" width="82.5" height="21.4"/>
									</defs>
									<clipPath id="SVGID_20_">
										<use xlink:href="#SVGID_19_"  style="overflow:visible;"/>
									</clipPath>
								</g>
							</g>
						</g>
					</g>
				</g>
			</g>
		</g>
		<g id="g4197" transform="matrix(0.44976830788980654,0,0,-0.44976830788980654,86.11923435983323,186.5223489170866) ">
			<path id="path4199" class="st16" d="M-121.1,161.9l-11.9,34.2c-0.3,0.8-0.6,2.2-0.6,3.3c0,3.2,2.5,6.2,6.6,6.2
				c3.4,0,5.7-2.2,6.7-5.3l7.4-24.6l7.6,24.5c1,3.3,3.5,5.5,7.1,5.5h0.8c3.5,0,6.1-2.3,7.1-5.5l7.7-24.6l7.6,24.8
				c0.9,2.9,3,5.3,6.6,5.3c3.8,0,6.4-2.9,6.4-6.3c0-0.9-0.3-2.2-0.5-2.8l-12.2-34.7c-1.4-4.3-4.3-6.2-7.6-6.2h-0.5
				c-3.3,0-6.2,1.9-7.4,5.9l-7.7,24.4l-7.8-24.4c-1.3-4-4.1-5.9-7.4-5.9h-0.5C-116.8,155.8-119.6,157.7-121.1,161.9"/>
		</g>
		<g id="g4201" transform="matrix(0.44976830788980654,0,0,-0.44976830788980654,86.11923435983323,186.5223489170866) ">
			<path id="path4203" class="st16" d="M-31.7,173.8v2.4c-2.4,1.1-5.4,1.8-8.8,1.8c-5.9,0-9.5-2.4-9.5-6.7v-0.2
				c0-3.7,3.1-5.9,7.5-5.9C-36.1,165.3-31.7,168.8-31.7,173.8 M-63.3,170.6v0.2c0,10.6,8.1,15.5,19.6,15.5c4.9,0,8.4-0.8,11.9-2v0.8
				c0,5.7-3.5,8.9-10.4,8.9c-3.8,0-6.9-0.5-9.5-1.4c-0.8-0.3-1.4-0.4-2-0.4c-3.2,0-5.7,2.4-5.7,5.6c0,2.4,1.5,4.5,3.7,5.3
				c4.3,1.6,9.1,2.5,15.5,2.5c7.5,0,12.9-2,16.4-5.4c3.6-3.6,5.3-9,5.3-15.5v-22.1c0-3.7-3-6.6-6.7-6.6c-4,0-6.6,2.8-6.6,5.7v0.1
				c-3.3-3.7-8-6.2-14.7-6.2C-55.8,155.8-63.3,161-63.3,170.6"/>
		</g>
		<g id="g4205" transform="matrix(0.44976830788980654,0,0,-0.44976830788980654,86.11923435983323,186.5223489170866) ">
			<path id="path4207" class="st16" d="M-16.5,162.2v0.3c0,2.6,0.9,4.3,3.1,6.7l22.5,24.9h-19.2c-3.1,0-5.6,2.4-5.6,5.5
				c0,3.1,2.5,5.6,5.6,5.6H20c3.9,0,6.7-2.3,6.7-5.5v-0.3c0-2.6-0.9-4.3-3.1-6.7L1,167.8h20.1c3.1,0,5.6-2.5,5.6-5.6
				c0-3.1-2.5-5.5-5.6-5.5h-31C-13.7,156.7-16.5,158.9-16.5,162.2"/>
		</g>
		<g id="g4209" transform="matrix(0.44976830788980654,0,0,-0.44976830788980654,86.11923435983323,186.5223489170866) ">
			<path id="path4211" class="st16" d="M59.9,184.7c-0.8,6.2-4.4,10.3-10.2,10.3c-5.7,0-9.4-4.1-10.5-10.3H59.9L59.9,184.7z
				 M51,155.6c-14.6,0-25.3,10.2-25.3,25.1v0.2c0,13.8,9.9,25.3,24,25.3c16.2,0,23.4-13.3,23.4-23.4c0-4-2.8-6.6-6.4-6.6H39.3
				c1.4-6.2,5.7-9.5,11.9-9.5c3.8,0,7,1.2,9.8,3.3c1,0.7,1.9,1.1,3.3,1.1c3.1,0,5.3-2.4,5.3-5.4c0-1.8-0.8-3.2-1.8-4.1
				C63.6,157.8,58.1,155.6,51,155.6"/>
		</g>
	</g>
</g>
</svg>
