<?xml version="1.0" encoding="utf-8"?>
<!-- Generator: Adobe Illustrator 22.0.1, SVG Export Plug-In . SVG Version: 6.00 Build 0)  -->
<svg version="1.1" id="Capa_1" xmlns="http://www.w3.org/2000/svg" xmlns:xlink="http://www.w3.org/1999/xlink" x="0px" y="0px"
	 viewBox="0 0 40.6 40.7" style="enable-background:new 0 0 40.6 40.7;" xml:space="preserve">
<style type="text/css">
	.st0{fill:#EFEEEA;}
	.st1{clip-path:url(#SVGID_2_);fill:url(#SVGID_3_);}
	.st2{clip-path:url(#SVGID_5_);fill:url(#SVGID_6_);}
	.st3{clip-path:url(#SVGID_8_);fill:url(#SVGID_9_);}
	.st4{clip-path:url(#SVGID_11_);fill:url(#SVGID_12_);}
</style>
<circle class="st0" cx="20.3" cy="20.3" r="20.3"/>
<g>
	<g>
		<defs>
			<path id="SVGID_1_" d="M8.1,19.3c-0.2,0.2-0.3,0.3-0.3,0.5v4.4c0,0.5,0.5,0.8,1.1,0.8c0.2,0,0.2-0.1,0.3-0.2l0.8,0.6v-7l-0.6,0.4
				c0.5-5.3,5-9.3,10.8-9.3s10.4,3.9,10.8,9.3l-0.5-0.4v7l0.8-0.6c0.1,0.2,0.2,0.2,0.3,0.2c0.5,0,1.1-0.3,1.1-0.8v-4.4
				c0-0.2-0.1-0.4-0.2-0.5C32.4,12.9,27.3,8,20.3,8C13.5,8.1,8.3,12.9,8.1,19.3"/>
		</defs>
		<clipPath id="SVGID_2_">
			<use xlink:href="#SVGID_1_"  style="overflow:visible;"/>
		</clipPath>
		
			<linearGradient id="SVGID_3_" gradientUnits="userSpaceOnUse" x1="-1046.6536" y1="-48.4948" x2="-1046.2561" y2="-48.4948" gradientTransform="matrix(0 -43.2085 43.2085 0 2115.6494 -45199.043)">
			<stop  offset="0" style="stop-color:#95908A"/>
			<stop  offset="1" style="stop-color:#BEB7B1"/>
		</linearGradient>
		<rect x="7.8" y="8.1" class="st1" width="24.9" height="17.2"/>
	</g>
</g>
<g>
	<g>
		<defs>
			<path id="SVGID_4_" d="M28.8,16.7c-0.3,0-0.7,0.2-0.7,0.6v9c0,0.3,0.4,0.5,0.7,0.5H30c0.3,0,0.5-0.2,0.5-0.5v-9
				c0-0.3-0.2-0.6-0.5-0.6C30,16.7,28.8,16.7,28.8,16.7z"/>
		</defs>
		<clipPath id="SVGID_5_">
			<use xlink:href="#SVGID_4_"  style="overflow:visible;"/>
		</clipPath>
		
			<linearGradient id="SVGID_6_" gradientUnits="userSpaceOnUse" x1="-1053.9956" y1="-36.12" x2="-1053.5983" y2="-36.12" gradientTransform="matrix(0 -25.4504 25.4504 0 948.6449 -26797.8145)">
			<stop  offset="0" style="stop-color:#0E0C0E"/>
			<stop  offset="1" style="stop-color:#363334"/>
		</linearGradient>
		<rect x="28.2" y="16.7" class="st2" width="2.4" height="10.1"/>
	</g>
</g>
<g>
	<g>
		<defs>
			<path id="SVGID_7_" d="M10.7,16.7c-0.3,0-0.7,0.2-0.7,0.6v9c0,0.3,0.3,0.5,0.7,0.5h1.2c0.3,0,0.6-0.2,0.6-0.5v-9
				c0-0.3-0.2-0.6-0.6-0.6C11.9,16.7,10.7,16.7,10.7,16.7z"/>
		</defs>
		<clipPath id="SVGID_8_">
			<use xlink:href="#SVGID_7_"  style="overflow:visible;"/>
		</clipPath>
		
			<linearGradient id="SVGID_9_" gradientUnits="userSpaceOnUse" x1="-1053.9956" y1="-35.0444" x2="-1053.5983" y2="-35.0444" gradientTransform="matrix(0 -25.4504 25.4504 0 903.1176 -26797.8145)">
			<stop  offset="0" style="stop-color:#0E0C0E"/>
			<stop  offset="1" style="stop-color:#363334"/>
		</linearGradient>
		<rect x="10" y="16.7" class="st3" width="2.4" height="10.1"/>
	</g>
</g>
<g>
	<g>
		<defs>
			<path id="SVGID_10_" d="M13.9,25.2l4.7,4.7l1.4-1.4l-4.7-4.7L13.9,25.2z M15.8,22.8h6.6v-2h-6.6L15.8,22.8L15.8,22.8z M13.9,18.4
				l1.4,1.4l4.7-4.7l-1.4-1.4L13.9,18.4z"/>
		</defs>
		<clipPath id="SVGID_11_">
			<use xlink:href="#SVGID_10_"  style="overflow:visible;"/>
		</clipPath>
		
			<linearGradient id="SVGID_12_" gradientUnits="userSpaceOnUse" x1="-1047.2625" y1="-47.0566" x2="-1046.865" y2="-47.0566" gradientTransform="matrix(0 -40.2572 40.2572 0 1912.4812 -42130.0117)">
			<stop  offset="0" style="stop-color:#E41511"/>
			<stop  offset="1" style="stop-color:#FB142A"/>
		</linearGradient>
		<rect x="13.9" y="13.8" class="st4" width="8.5" height="16"/>
	</g>
</g>
</svg>
