<?xml version="1.0" encoding="utf-8"?>
<!-- Generator: Adobe Illustrator 23.0.2, SVG Export Plug-In . SVG Version: 6.00 Build 0)  -->
<svg version="1.1" id="Capa_1" xmlns="http://www.w3.org/2000/svg" xmlns:xlink="http://www.w3.org/1999/xlink" x="0px" y="0px"
	 viewBox="0 0 144 144" style="enable-background:new 0 0 144 144;" xml:space="preserve">
<style type="text/css">
	.st0{fill:none;}
	.st1{fill:#A0A0A0;}
	.st2{fill:#FFFFFF;}
</style>
<g>
	<title>background</title>
	<rect id="canvas_background" x="-1" y="-1" class="st0" width="146" height="146"/>
</g>
<g>
	<title>Layer 1</title>
	<g id="svg_1">
		<g id="Background_1_">
			<path id="svg_2" class="st1" d="M1,70.2V74c1,36.7,30.6,66.2,65.8,69h10.8c35.4-2.8,64.5-32.5,65.4-69.1v-3.8
				c-1-37.2-31-67.3-67.3-69.1C36.7-0.9,2.1,30.4,1,70.2z"/>
		</g>
		<g id="Symbol">
			<g id="svg_3">
				<path id="svg_4" class="st2" d="M72.3,36.7c11.3,0,12.7,0,17.1,0.2c4.1,0.2,6.4,0.9,7.9,1.5c2,0.8,3.4,1.7,4.9,3.2
					c1.5,1.5,2.4,2.9,3.2,4.9c0.6,1.5,1.2,3.8,1.5,8c0.2,4.6,0.2,5.9,0.2,17.4s0,12.9-0.2,17.4c-0.2,4.2-0.9,6.5-1.5,8
					c-0.8,2-1.7,3.4-3.2,4.9c-1.5,1.5-2.9,2.4-4.9,3.2c-1.5,0.6-3.7,1.3-7.9,1.5c-4.5,0.2-5.8,0.2-17.1,0.2s-12.7,0-17.1-0.2
					c-4.1-0.2-6.4-0.9-7.9-1.5c-2-0.8-3.4-1.7-4.9-3.2s-2.4-2.9-3.2-4.9c-0.6-1.5-1.2-3.8-1.5-8c-0.2-4.6-0.2-5.9-0.2-17.4
					s0-12.9,0.2-17.4c0.2-4.2,0.9-6.5,1.5-8c0.8-2,1.7-3.4,3.2-4.9c1.5-1.5,2.9-2.4,4.9-3.2c1.5-0.6,3.7-1.3,7.9-1.5
					C59.7,36.7,61,36.7,72.3,36.7 M72.3,28.9c-11.5,0-13,0.1-17.5,0.3s-7.6,0.9-10.3,2c-2.8,1.1-5.2,2.6-7.5,5
					c-2.4,2.4-3.8,4.8-4.9,7.7c-1.1,2.7-1.8,5.9-2,10.5C30,58.9,30,60.3,30,72s0.1,13.2,0.2,17.8c0.2,4.6,0.9,7.7,2,10.5
					c1.1,2.8,2.5,5.2,4.9,7.7s4.7,3.9,7.5,5c2.7,1.1,5.8,1.8,10.3,2c4.5,0.2,6,0.3,17.5,0.3s13-0.1,17.5-0.3c4.5-0.2,7.6-0.9,10.3-2
					c2.8-1.1,5.2-2.6,7.5-5c2.4-2.4,3.8-4.8,4.9-7.7c1.1-2.7,1.8-5.9,2-10.5c0.2-4.6,0.2-6,0.2-17.8s-0.1-13.2-0.2-17.8
					c-0.2-4.6-0.9-7.7-2-10.5c-1.1-2.8-2.5-5.2-4.9-7.7s-4.7-3.9-7.5-5c-2.7-1.1-5.8-1.8-10.3-2C85.3,28.9,83.8,28.9,72.3,28.9
					C72.3,28.9,72.3,28.9,72.3,28.9z"/>
				<path id="svg_5" class="st2" d="M72.3,49.9c-12,0-21.8,9.9-21.8,22.1s9.7,22.1,21.8,22.1S94.1,84.2,94.1,72S84.3,49.9,72.3,49.9
					z M72.3,86.4c-7.8,0-14.1-6.4-14.1-14.4s6.3-14.4,14.1-14.4S86.5,64,86.5,72C86.5,80,80.1,86.4,72.3,86.4z"/>
				<ellipse id="svg_6" class="st2" cx="94.9" cy="49" rx="5.1" ry="5.2"/>
			</g>
		</g>
	</g>
</g>
</svg>
