<?xml version="1.0" encoding="utf-8"?>
<!-- Generator: Adobe Illustrator 23.0.2, SVG Export Plug-In . SVG Version: 6.00 Build 0)  -->
<svg version="1.1" id="Capa_1" xmlns="http://www.w3.org/2000/svg" xmlns:xlink="http://www.w3.org/1999/xlink" x="0px" y="0px"
	 viewBox="0 0 144 144" style="enable-background:new 0 0 144 144;" xml:space="preserve">
<style type="text/css">
	.st0{fill:#EEEEEE;}
	.st1{fill:#A0A0A0;}
	.st2{fill:#FFFFFE;}
</style>
<g id="Layer_x0020_1">
	<g id="_316006000">
		<path id="_316005568" class="st0" d="M44.9,128.9l-33.7,10.7L1,142.9l14.3-42.4c-2.4-4.4-4.3-9.1-5.7-14c-1.6-5.9-2.5-12-2.5-18.1
			c0-18,7.2-35,19.9-47.7C39.8,8,57,1,75,1s35.2,7,48,19.7c12.9,12.8,20,29.9,20,47.8c0,18-7.2,35-19.9,47.7
			c-12.8,12.7-30,19.7-48,19.7c-5.7,0-11.4-0.7-17-2.1C53.6,132.7,49.1,131,44.9,128.9L44.9,128.9z"/>
		<path id="_316005808" class="st1" d="M137.6,68.5c0-17.1-7-32.6-18.3-43.9C108,13.4,92.4,6.5,75.1,6.5s-32.9,6.9-44.2,18.2
			C19.6,35.9,12.6,51.4,12.6,68.5c0,5.7,0.8,11.3,2.3,16.6c1.5,5.3,3.6,10.3,6.4,14.9l-10.8,32l-0.9,2.5l2.5-0.8l33.3-10.6
			c4.4,2.4,9.1,4.2,14.1,5.5c5,1.3,10.2,2,15.6,2c17.3,0,32.9-6.9,44.2-18.2C130.6,101.2,137.6,85.7,137.6,68.5L137.6,68.5z"/>
		<path id="_316006024" class="st2" d="M65,51.6c-0.3-0.6-1.9-4.4-3.3-7.9c-0.9-2.3-1.8-4.4-2-4.8c-1.6-3.9-3.5-3.8-4.9-3.7
			c-0.1,0-0.2,0-0.3,0c-0.5,0-1,0-1.5-0.1c-0.6,0-1.3-0.1-1.9-0.1c-0.8,0-1.9,0.2-3.1,0.7c-0.9,0.4-1.7,1-2.6,1.9
			c-0.1,0.1-0.2,0.2-0.3,0.3c-1.9,2-6.1,6.4-6.1,14.9c0,8.9,6.4,17.4,7.4,18.6l0,0l0,0l0,0c0,0,0.2,0.2,0.4,0.5
			c2.4,3.5,13.3,19.4,29.9,25.9c15,5.9,17.8,5.2,20.2,4.6c0.4-0.1,0.8-0.2,1.3-0.2c2-0.2,5.2-1.5,7.9-3.4c2.2-1.6,4.2-3.6,5-5.6
			c0.7-1.9,1-3.6,1.2-5c0.3-2.1,0.1-3.7-0.3-4.3l0,0c-0.6-0.9-1.6-1.4-3.1-2.1c-0.3-0.1-0.5-0.3-0.8-0.4l0,0c-1-0.5-4.6-2.3-7.6-3.7
			c-2-0.9-3.7-1.7-4.4-2c-1-0.3-1.8-0.6-2.7-0.5c-1,0.1-1.9,0.6-2.8,1.9l0,0c-0.4,0.6-1.2,1.6-2,2.6c-1.3,1.6-2.8,3.3-3.4,4l0,0
			c-0.3,0.3-0.5,0.5-0.7,0.5c-0.3,0-0.8-0.1-1.4-0.4c-0.4-0.2-0.8-0.4-1.3-0.6c-2.4-1-7.1-3.1-12.4-7.8c-1.9-1.7-3.6-3.5-5-5.3
			c-2.3-2.8-3.8-5.3-4.4-6.3c-0.5-0.8,0.1-1.4,0.5-1.9l0,0c0.5-0.5,1.2-1.3,1.8-2c0.3-0.3,0.6-0.7,0.9-1.1l0,0
			c0.8-1,1.2-1.7,1.6-2.6c0.1-0.2,0.2-0.3,0.3-0.5l0,0c0.4-0.8,0.5-1.6,0.4-2.4C65.5,52.8,65.2,52.2,65,51.6L65,51.6L65,51.6z"/>
	</g>
</g>
</svg>
